<svg xmlns="http://www.w3.org/2000/svg" width="180" height="48" viewBox="0 0 180 48">
  <defs>
    <style>
      @import url('https://fonts.googleapis.com/css2?family=Space+Grotesk:wght@400;500;600');
      .text {
        font-family: 'Space Grotesk', sans-serif;
        font-size: 24px;
        font-weight: 500;
        letter-spacing: 0.02em;
        fill: #EAE8E3;
      }
      .bg {
        fill: #1A1918;
      }
    </style>
  </defs>
  
  <rect width="100%" height="100%" class="bg" rx="6" />

  <!-- Center the entire group. 
       Icon width = 24. Gap = 10. Text width ~ 100. Total width ~ 134.
       Remaining space = 180 - 134 = 46. 
       Margin left = 46 / 2 = 23.
       Icon X = 23. Text X = 23 + 24 + 10 = 57.
  -->

  <g transform="translate(23, 12)" fill="none" stroke="#D97757" stroke-width="2" stroke-linecap="round" stroke-linejoin="round">
    <path d="M21 16V8a2 2 0 0 0-1-1.73l-7-4a2 2 0 0 0-2 0l-7 4A2 2 0 0 0 3 8v8a2 2 0 0 0 1 1.73l7 4a2 2 0 0 0 2 0l7-4A2 2 0 0 0 21 16z"></path>
    <polyline points="3.27 6.96 12 12.01 20.73 6.96"></polyline>
    <line x1="12" y1="22.08" x2="12" y2="12"></line>
  </g>

  <text x="57" y="32" class="text">Relevect</text>
</svg>
